<?xml version="1.0" standalone="no"?><!DOCTYPE svg PUBLIC "-//W3C//DTD SVG 1.1//EN" "http://www.w3.org/Graphics/SVG/1.1/DTD/svg11.dtd"><svg t="1751988482703" class="icon" viewBox="0 0 1024 1024" version="1.1" xmlns="http://www.w3.org/2000/svg" p-id="5525" xmlns:xlink="http://www.w3.org/1999/xlink" width="200" height="200"><path d="M810.7 351.3c13.5-5.6 24.7-11 33.8-15.8 47.2-25.4 68.6-77.4 61.8-150.6-4.8-52.3-22.2-97-23-98.9-3.2-8.2-12.5-12.3-20.7-9-8.2 3.2-12.3 12.5-9.1 20.7 0.6 1.6 62.6 162.9-24.2 209.5-5.2 2.8-10.5 5.4-15.9 8 6.2-24.3 7.9-54.3 4.9-89.9-3.4-41.9-12.1-76-12.4-77.5-2.2-8.6-10.9-13.7-19.5-11.5-8.6 2.2-13.7 10.9-11.5 19.5 8.7 34.3 24.7 130.3-2 175.5-20.1 6.9-40.6 12.4-60 16.9 5.2-16.2 7.3-36.7 6.5-61.4-1.2-33.9-7.6-63.7-7.9-64.9-1.9-8.6-10.4-14.1-19-12.2-8.6 1.9-14.1 10.4-12.2 19 0.1 0.3 6.1 28.2 7.1 59.2 1.2 34.6-4.4 59.3-15.5 68.5-1.2 0.2-2.5 0.4-3.7 0.6-47.8-44-98-66.9-143.7-65-45.6-1.9-96.7 21.5-144.7 66-3.2-0.5-6.5-1.1-9.9-1.6-11-9.2-16.6-33.8-15.5-68.1 1-30.9 7-59 7.2-59.6 1.9-8.6-3.6-17.2-12.2-19-8.6-1.9-17.2 3.6-19 12.2-0.3 1.3-6.7 31.1-7.9 64.9-0.8 24.7 1.3 45.2 6.5 61.4-19.6-4.5-40-10-60-16.9-26.7-45.2-10.7-141.2-2-175.6 2.2-8.6-3-17.3-11.5-19.5-8.6-2.2-17.3 3-19.5 11.5-0.4 1.4-9 35.5-12.4 77.5-2.9 35.6-1.3 65.6 4.9 89.9-5.4-2.5-10.7-5.2-15.9-8-86.8-46.6-24.8-207.9-24.2-209.5 3.2-8.2-0.8-17.5-9-20.7-8.2-3.2-17.5 0.8-20.7 9-0.7 1.9-18.1 46.6-23 98.9-6.8 73.1 14.6 125.2 61.8 150.6 11 5.9 22.5 11.3 34.4 16.1-32.3 9.4-59.6 28-76.3 53.2-3.5 5.4-3.5 12.3 0 17.7 24.5 37 72.1 59.9 124.3 59.9 2 0 4 0 6-0.1-12 21.9-22.8 44.9-32.3 68.7-15.2 38.2-24.9 74.3-32.3 104.7-7.8 25.3-8.9 50-8.9 70.8 0 64 32.5 123.7 91.6 167.9 57.8 43.3 135.1 67.1 217.8 67.1 82.7 0 160.7-24 219.5-67.6 29.1-21.5 52-46.7 68-74.9 16.9-29.6 25.4-61 25.4-93.6 0-9.3-0.8-18.8-2.2-28.2-6.1-51.2-18.4-100.4-36.6-146.2-9.5-23.9-20.3-46.9-32.1-68.6h0.2c52.2 0 99.8-23 124.3-59.9 3.5-5.4 3.5-12.3 0-17.7-17.2-25.3-44.9-44.1-77.6-53.4z m-531 99.1c-37 0-70.7-13.9-90.8-36.7 20.1-22.9 53.8-36.7 90.8-36.7 24 0 47.3 6 66.1 16.9-14 16.6-27.4 34.7-39.8 54.1-8.5 1.6-17.4 2.4-26.3 2.4z m486.2 112.4c17.2 43.4 28.9 90 34.6 138.5l0.1 0.6c1.2 7.8 1.9 15.8 1.9 23.5 0 112.5-126.1 204-281 204-75.8 0-146.3-21.6-198.6-60.7-50.8-38-78.7-88.5-78.7-142.3 0-18.5 0.9-40.3 7.6-61.7l0.3-1c7.2-29.4 16.6-64.3 31.1-101 27.8-70 68-132.6 113.3-176.3l0.1-0.1 0.4-0.4c41.7-40.1 84.9-61.9 122.4-61.9 1.5 0 3 0 4.4 0.1h1.6c42.3-2 93.4 25.5 140.2 75.4 19.7 21 38 45.2 54.6 71.8 0.3 0.5 0.6 1 0.9 1.4 16.9 27.7 32.1 58 44.8 90.1z m-2.2-112.4c-6.7 0-13.4-0.5-19.9-1.4-13.2-20.6-27.3-39.8-42.4-57.3 18.2-9.6 39.7-14.8 62.3-14.8 37 0 70.7 13.9 90.8 36.7-20.1 22.9-53.8 36.8-90.8 36.8z" fill="#2c2c2c" p-id="5526"></path><path d="M618.7 525.8c-34.8 0-65.6 20.9-78.4 53.2-3.3 8.2 0.8 17.5 9 20.8 1.9 0.8 3.9 1.1 5.9 1.1 6.4 0 12.4-3.8 14.9-10.1 8-20.1 27.1-33 48.7-33 20.6 0 39.3 12.1 47.7 30.9 3.6 8.1 13.1 11.6 21.2 8 8.1-3.6 11.6-13.1 8-21.2-13.7-30.2-43.9-49.7-77-49.7zM463.1 590.8c2.5 6.3 8.5 10.1 14.9 10.1 2 0 4-0.4 5.9-1.1 8.2-3.3 12.2-12.6 9-20.8-12.8-32.3-43.6-53.2-78.4-53.2-33.1 0-63.3 19.5-76.9 49.7-3.6 8.1 0 17.5 8 21.2 8.1 3.6 17.5 0 21.2-8 8.4-18.8 27.2-30.9 47.7-30.9 21.6 0 40.7 12.9 48.6 33zM524.8 651.1c-51.8 0-94 42.2-94 94s42.2 94 94 94 94-42.2 94-94-42.1-94-94-94z m0 156c-34.2 0-62-27.8-62-62s27.8-62 62-62 62 27.8 62 62-27.8 62-62 62z" fill="#2c2c2c" p-id="5527"></path></svg>