<?xml version="1.0" standalone="no"?><!DOCTYPE svg PUBLIC "-//W3C//DTD SVG 1.1//EN" "http://www.w3.org/Graphics/SVG/1.1/DTD/svg11.dtd"><svg t="1751988923682" class="icon" viewBox="0 0 1024 1024" version="1.1" xmlns="http://www.w3.org/2000/svg" p-id="28882" xmlns:xlink="http://www.w3.org/1999/xlink" width="200" height="200"><path d="M237.971831 403.830986m-48.315493 0a48.315493 48.315493 0 1 0 96.630986 0 48.315493 48.315493 0 1 0-96.630986 0Z" fill="#1296db" p-id="28883"></path><path d="M479.549296 356.23662a48.315493 48.315493 0 1 1 0 96.630986 48.315493 48.315493 0 0 1 0-96.630986z" fill="#1296db" p-id="28884"></path><path d="M552.383099 992.991549c-90.861972 0-157.205634-15.864789-160.811268-16.585915l-7.932394-2.16338C160.811268 930.974648 0 735.549296 0 507.673239c0-134.850704 57.690141-264.653521 157.926761-354.794366C260.326761 61.295775 391.571831 18.749296 529.307042 33.892958c212.011268 22.35493 387.966197 191.819718 418.974648 402.388732 12.259155 86.535211 2.16338 172.349296-30.287324 250.952113l55.526761-11.538028c15.864789-3.605634 31.729577 2.16338 41.825352 15.143662 10.095775 12.980282 11.538028 30.287324 4.32676 44.709859-70.670423 144.225352-201.915493 231.48169-380.754929 252.394366-30.287324 3.605634-59.132394 5.047887-86.535211 5.047887z m-116.101409-65.622535c40.383099 6.490141 115.380282 14.422535 197.588733 4.326761 147.830986-18.028169 256-82.929577 320.180281-193.983099l-71.391549 15.143662c-12.259155 2.884507-25.239437-2.16338-33.171831-12.259155-7.932394-10.095775-8.653521-23.797183-2.884507-35.335211 42.546479-80.04507 58.411268-170.185915 44.709859-260.326761-27.402817-185.329577-182.44507-334.602817-368.495775-354.794366-121.149296-12.980282-237.250704 24.51831-326.670422 105.284507-88.698592 79.323944-139.177465 193.261972-139.177465 312.247887 0 204.078873 145.667606 377.870423 346.861972 413.205634l33.171831 5.769014-0.721127 0.721127z m532.191549-217.059155z" fill="#1296db" p-id="28885"></path><path d="M356.957746 618.005634c-61.295775 0-110.332394-29.566197-135.571831-55.526761-7.211268-7.211268-7.211268-18.749296 0-25.239436 7.211268-7.211268 18.749296-7.211268 25.239437 0 4.326761 4.326761 102.4 99.515493 225.712676-1.442254 7.932394-6.490141 18.749296-5.047887 25.239437 2.884507s5.047887 18.749296-2.884507 25.239437c-48.315493 40.383099-95.909859 54.084507-137.735212 54.084507z" fill="#1296db" p-id="28886"></path></svg>